<svg xmlns="http://www.w3.org/2000/svg" viewBox="0 0 2048 2048">
<path fill="#000" d="M 387.641 36.4275 C 399.817 35.3284 414.034 36.0321 426.378 35.8968 C 443.958 35.704 461.655 35.896 479.246 35.9032 L 649.084 35.9156 L 1171.02 35.9297 L 1505.34 35.9061 L 1601.19 35.8763 C 1638.49 35.873 1666.74 34.9196 1703.55 41.4258 C 1772.88 54.0882 1837.26 85.9503 1889.38 133.389 C 1963.38 201.241 2009.2 293.844 2013.02 394.67 C 2014.35 429.868 2013.7 465.622 2013.67 500.877 L 2013.65 669.231 L 2013.62 1206.17 L 2013.62 1505.86 L 2013.63 1591.42 C 2013.63 1618.59 2014 1645.45 2010.91 1672.51 C 1990.81 1848.56 1837.77 1993.99 1659.78 2001.19 C 1659.06 2001.26 1658.33 2001.32 1657.61 2001.37 C 1632.64 2003.16 1594.36 2002 1568.86 2002 L 1406.39 2001.98 L 900.599 2001.98 L 548.285 2001.99 L 448.447 2002 C 414.434 2002 381.48 2002.77 347.768 1996.98 C 278.793 1984.91 214.486 1954.04 161.919 1907.78 C 88.541 1843.38 43.1683 1752.9 35.4417 1655.57 C 33.207 1623.68 34.1308 1585.62 34.1449 1553.24 L 34.1591 1395.7 L 34.1829 893.737 L 34.1564 552.534 L 34.1239 455.862 C 34.1076 417.977 33.3395 385.043 39.9994 347.534 C 52.4049 279.113 83.3729 215.415 129.521 163.398 C 195.327 88.5297 288.171 42.859 387.641 36.4275 z"/>
<path fill="#fff" d="M 530.056 374.028 L 747.574 374.083 L 747.525 1364.01 L 1642.87 1364.04 C 1632.67 1377.52 1621.69 1394.42 1611.86 1408.61 L 1560.81 1481.53 C 1543.17 1507.84 1522.4 1535.96 1503.94 1561.95 L 530.023 1561.96 C 529.439 1508.15 529.94 1453.38 529.935 1399.46 L 529.955 1082.56 L 530.056 374.028 z"/>
</svg>
